<?xml version="1.0" standalone="no"?>
<!DOCTYPE svg PUBLIC "-//W3C//DTD SVG 20010904//EN"
 "http://www.w3.org/TR/2001/REC-SVG-20010904/DTD/svg10.dtd">
<svg version="1.0" xmlns="http://www.w3.org/2000/svg"
 width="512.000000pt" height="512.000000pt" viewBox="0 0 512.000000 512.000000"
 preserveAspectRatio="xMidYMid meet">

<g transform="translate(0.000000,512.000000) scale(0.100000,-0.100000)"
fill="#000000" stroke="none">
<path d="M360 4873 l0 -246 503 6 c276 4 1266 7 2200 7 l1697 0 -2 238 -3 237
-2197 3 -2198 2 0 -247z m735 84 c18 -15 28 -36 32 -64 5 -39 2 -46 -30 -78
-37 -37 -70 -44 -110 -24 -95 49 -64 189 42 189 27 0 48 -7 66 -23z m306 -6
c31 -31 39 -83 19 -122 -13 -24 -61 -49 -94 -49 -35 0 -84 45 -92 85 -17 94
98 154 167 86z m2219 -21 c30 -30 27 -83 -6 -109 -27 -21 -31 -21 -965 -21
-515 0 -945 3 -954 6 -17 7 -45 54 -45 77 0 8 9 26 21 41 l20 26 955 0 c941 0
954 0 974 -20z m913 -12 c23 -30 18 -67 -13 -98 -19 -19 -35 -20 -310 -20
l-291 0 -24 25 c-31 30 -32 73 -4 103 20 22 22 22 321 20 l301 -3 20 -27z"/>
<path d="M1751 3776 c-35 -37 -168 -130 -251 -175 -111 -60 -270 -109 -394
-123 -234 -26 -468 40 -678 193 l-68 49 0 -96 c0 -91 -2 -101 -40 -186 -87
-193 -159 -451 -191 -688 -17 -122 -17 -478 -1 -595 36 -252 110 -518 192
-690 l38 -80 1 532 1 533 1108 2 1107 3 3 40 c3 55 -25 97 -97 142 -98 61
-113 110 -68 221 l26 62 -152 0 -152 0 -160 -105 c-424 -279 -663 -341 -975
-254 -95 26 -252 101 -354 169 l-78 53 187 187 c224 224 241 235 370 235 120
0 145 -14 314 -180 77 -75 148 -136 163 -140 35 -9 62 6 136 78 61 61 62 62
62 117 0 83 16 100 93 100 l62 0 110 110 c109 109 109 110 90 129 -12 12 -50
26 -91 35 -90 18 -141 44 -185 93 -43 48 -56 79 -72 173 -7 40 -17 75 -23 77
-5 2 -20 -7 -33 -21z m-1366 -836 c10 -11 16 -20 13 -20 -3 0 -13 9 -23 20
-10 11 -16 20 -13 20 3 0 13 -9 23 -20z m66 -57 c13 -16 12 -17 -3 -4 -17 13
-22 21 -14 21 2 0 10 -8 17 -17z"/>
<path d="M4761 2455 l1 -1070 39 84 c115 242 190 568 205 886 17 363 -68 794
-220 1115 l-26 55 1 -1070z"/>
<path d="M3220 3045 l0 -125 119 0 c148 0 151 2 151 128 0 125 3 122 -145 122
l-125 0 0 -125z"/>
</g>
</svg>
